# xmcd CD database file
#
# Track frame offsets:
#	150
#	33439
#	72183
#	108663
#	126785
#	157397
#	186433
#
# Disc length: 2760 seconds
#
# Revision: 1
# Processed by: cddbd v1.5.2PL0 Copyright (c) Steve Scherf et al.
# Submitted via: CDex 1.70beta2
#
DISCID=670ac607
DTITLE=Bagel O Fun - In The Underground Wonderland
DYEAR=1981
DGENRE=Jazz
TTITLE0=Xenophobe
TTITLE1=Solar Rays
TTITLE2=Fred Eats It
TTITLE3=B/A
TTITLE4=Le Rual Bleu
TTITLE5=Tari
TTITLE6=The Rack
EXTD=YEAR: 1981
EXTT0=
EXTT1=
EXTT2=
EXTT3=
EXTT4=
EXTT5=
EXTT6=
PLAYORDER=
